<?xml version="1.0" standalone="no"?>
<!DOCTYPE svg PUBLIC "-//W3C//DTD SVG 20010904//EN"
 "http://www.w3.org/TR/2001/REC-SVG-20010904/DTD/svg10.dtd">
<svg version="1.0" xmlns="http://www.w3.org/2000/svg"
 width="192.000000pt" height="192.000000pt" viewBox="0 0 192.000000 192.000000"
 preserveAspectRatio="xMidYMid meet">

<g transform="translate(0.000000,192.000000) scale(0.100000,-0.100000)"
fill="#000000" stroke="none">
<path d="M799 1327 c-88 -25 -179 -94 -179 -135 0 -17 9 -15 100 24 120 51
245 42 286 -21 22 -33 21 -107 0 -140 -14 -21 -24 -25 -69 -25 -55 0 -77 -12
-77 -42 0 -25 31 -38 88 -38 47 0 51 -2 66 -35 61 -128 -2 -245 -133 -245 -95
0 -101 4 -101 64 1 62 14 158 34 251 9 39 19 98 22 132 6 55 4 63 -11 70 -27
10 -74 -50 -106 -133 -27 -70 -69 -251 -69 -299 0 -24 -3 -26 -40 -23 -47 2
-55 -4 -40 -31 15 -29 72 -63 150 -91 54 -20 85 -24 180 -24 101 0 120 2 160
23 94 48 130 100 130 186 0 83 -25 132 -90 178 l-23 16 32 27 c43 36 63 79 63
134 0 113 -82 176 -239 185 -57 3 -104 0 -134 -8z"/>
<path d="M1514 1330 c-88 -19 -204 -96 -204 -137 0 -19 14 -17 93 19 141 61
282 46 320 -35 46 -97 -7 -225 -100 -241 -60 -11 -73 -16 -73 -30 0 -26 29
-37 93 -38 131 -1 232 95 244 231 4 48 1 64 -24 111 -25 48 -37 59 -93 88 -51
25 -81 33 -140 37 -41 2 -93 0 -116 -5z"/>
<path d="M195 1314 c-56 -20 -130 -72 -149 -106 -17 -27 -17 -28 6 -28 13 0
52 8 88 19 36 10 87 21 114 25 45 7 48 6 41 -11 -74 -178 -141 -517 -119 -600
5 -20 13 -23 51 -23 73 0 80 8 88 102 8 101 26 230 56 406 l22 132 114 0 113
0 20 33 c42 68 45 67 -192 66 -160 0 -223 -4 -253 -15z"/>
<path d="M1478 1163 c-36 -39 -61 -93 -97 -208 -44 -145 -64 -299 -45 -349 9
-23 85 -21 113 2 18 15 22 34 31 152 5 74 19 176 30 225 23 107 26 205 7 205
-7 0 -25 -12 -39 -27z"/>
</g>
</svg>
